<svg xmlns="http://www.w3.org/2000/svg" viewBox="0 0 980 560" role="img" aria-labelledby="title desc">
  <title id="title">Nintendo Switch console illustration</title>
  <desc id="desc">A stylized Nintendo Switch with red and blue Joy-Con controllers.</desc>
  <defs>
    <linearGradient id="screen" x1="0" x2="1" y1="0" y2="1">
      <stop offset="0" stop-color="#202633"/>
      <stop offset="0.56" stop-color="#0b0d13"/>
      <stop offset="1" stop-color="#282d3b"/>
    </linearGradient>
    <linearGradient id="shine" x1="0" x2="1">
      <stop offset="0" stop-color="#fff" stop-opacity=".34"/>
      <stop offset=".62" stop-color="#fff" stop-opacity="0"/>
    </linearGradient>
    <filter id="shadow" x="-20%" y="-20%" width="140%" height="150%">
      <feDropShadow dx="0" dy="28" stdDeviation="25" flood-color="#17181f" flood-opacity=".28"/>
    </filter>
  </defs>
  <rect width="980" height="560" fill="none"/>
  <g filter="url(#shadow)">
    <rect x="85" y="93" width="155" height="374" rx="70" fill="#00a2e8"/>
    <rect x="740" y="93" width="155" height="374" rx="70" fill="#e60012"/>
    <rect x="225" y="78" width="530" height="404" rx="34" fill="#1d2029"/>
    <rect x="253" y="107" width="474" height="346" rx="13" fill="url(#screen)"/>
    <path d="M282 124h351c-35 31-84 54-146 68-75 18-139 45-205 96z" fill="url(#shine)"/>
    <circle cx="164" cy="177" r="25" fill="#f7fbff"/>
    <circle cx="164" cy="391" r="25" fill="#11151c"/>
    <circle cx="809" cy="179" r="25" fill="#f7fbff"/>
    <circle cx="809" cy="391" r="25" fill="#11151c"/>
    <circle cx="793" cy="263" r="12" fill="#11151c"/>
    <circle cx="825" cy="263" r="12" fill="#11151c"/>
    <circle cx="809" cy="247" r="12" fill="#11151c"/>
    <circle cx="809" cy="279" r="12" fill="#11151c"/>
    <rect x="138" y="252" width="52" height="16" rx="8" fill="#11151c"/>
    <rect x="156" y="234" width="16" height="52" rx="8" fill="#11151c"/>
    <text x="490" y="285" text-anchor="middle" fill="#fff" font-family="Arial, sans-serif" font-size="50" font-weight="800">PLAY</text>
    <text x="490" y="334" text-anchor="middle" fill="#9aa4b7" font-family="Arial, sans-serif" font-size="23" font-weight="700">ANYWHERE</text>
  </g>
</svg>
